# xmcd
#
# Track frame offsets:
#	150
#	17613
#	26100
#	43414
#	54237
#	68649
#	78423
#	101737
#	118198
#	138563
#	154311
#	167366
#	182943
#	195473
#	221417
#	237086
#	258929
#	284611
#
# Disc length: 4093 seconds
#
# Revision: 0
# Processed by: cddbd v1.4PL0 Copyright (c) Steve Scherf et al.
# Submitted via: EasyCDDAExtractor 5.0.5.1
#
DISCID=010ffb12
DTITLE=João Paulo and Daniel ( Ao Vivo) - Amigo é coisa pra se guardar...
DYEAR=1900
DGENRE=Country
TTITLE0=Voce só  me faz feliz (vivo)
TTITLE1=Te cuida coração (vivo)
TTITLE2=Cuida de Mim (vivo)
TTITLE3=Ainda Te amo (vivo)
TTITLE4=Fogo de amor (vivo)
TTITLE5=Medley/Moda de viola (vivo)
TTITLE6=Dia de visita (vivo)
TTITLE7=Olhos Claros (vivo)
TTITLE8=Desejo de Amar (vivo)
TTITLE9=Rosto molhado (vivo)
TTITLE10=Vai e volta (vivo)
TTITLE11=Alguém (vivo)
TTITLE12=O cheiro dela (vivo)
TTITLE13=Hoje eu sei (vivo)
TTITLE14=Eu  me amarrei (vivo)
TTITLE15=Só da você na minha vida (vivo)
TTITLE16=Estou apaixonado (vivo)
TTITLE17=Canção da América (vivo)
EXTD=
EXTT0=
EXTT1=
EXTT2=
EXTT3=
EXTT4=
EXTT5=
EXTT6=
EXTT7=
EXTT8=
EXTT9=
EXTT10=
EXTT11=
EXTT12=
EXTT13=
EXTT14=
EXTT15=
EXTT16=
EXTT17=
PLAYORDER=
